<svg xmlns="http://www.w3.org/2000/svg" width="200" height="200" viewBox="0 0 200 200"><rect width="100%" height="100%" fill="#DDDDDD"/><path fill="#999999" d="M50.715 92.315h3.71v15.39h-3.71v-6.81h-6v6.81h-3.7v-15.39h3.7v5.84h6zm10.31 5.93h6.99q0-.73-.21-1.36-.2-.64-.6-1.12-.41-.48-1.03-.76-.62-.27-1.45-.27-1.6 0-2.53.91-.92.92-1.17 2.6m9.45 2.23h-9.53q.09 1.19.42 2.05t.87 1.42q.54.57 1.28.84.75.28 1.65.28t1.55-.21 1.14-.46q.49-.26.85-.47.37-.21.72-.21.46 0 .69.34l1.06 1.36q-.61.72-1.38 1.2-.76.49-1.6.78-.83.3-1.69.41-.86.12-1.67.12-1.61 0-2.99-.53t-2.4-1.57-1.6-2.58q-.59-1.54-.59-3.57 0-1.57.51-2.96t1.46-2.41q.96-1.03 2.33-1.63t3.1-.6q1.45 0 2.68.47 1.23.46 2.12 1.35.88.9 1.38 2.19.51 1.3.51 2.97 0 .84-.18 1.13t-.69.29m16.84-8.16v2.75h-5.49v12.64h-3.7v-12.64h-5.48v-2.75zm23.76 0v15.39h-3.7v-12.55h-3.78q-.18 2.83-.56 4.88-.37 2.04-.89 3.47t-1.16 2.29q-.63.86-1.35 1.34t-1.49.64q-.76.15-1.54.15-.83 0-1.21-.14t-.38-.4v-2.31h.88q.5 0 .99-.14.5-.15.96-.62.47-.46.89-1.33.42-.86.77-2.28.35-1.41.62-3.47t.42-4.92zm10.47-.24q1.71 0 3.11.56 1.41.55 2.4 1.57 1 1.02 1.54 2.49t.54 3.29q0 1.83-.54 3.3-.54 1.46-1.54 2.5-.99 1.03-2.4 1.59-1.4.55-3.11.55-1.72 0-3.13-.55-1.41-.56-2.41-1.59-1-1.04-1.55-2.5-.54-1.47-.54-3.3 0-1.82.54-3.29.55-1.47 1.55-2.49t2.41-1.57q1.41-.56 3.13-.56m0 13q1.92 0 2.84-1.29.93-1.29.93-3.77 0-2.5-.93-3.8-.92-1.3-2.84-1.3-1.95 0-2.89 1.31-.93 1.31-.93 3.79 0 2.47.93 3.77.94 1.29 2.89 1.29m20.85-12.76v2.75h-6.72v12.64h-3.7v-15.39zm9-.24q1.71 0 3.11.56 1.41.55 2.4 1.57 1 1.02 1.54 2.49t.54 3.29q0 1.83-.54 3.3-.54 1.46-1.54 2.5-.99 1.03-2.4 1.59-1.4.55-3.11.55-1.72 0-3.13-.55-1.41-.56-2.41-1.59-1-1.04-1.55-2.5-.54-1.47-.54-3.3 0-1.82.54-3.29.55-1.47 1.55-2.49t2.41-1.57q1.41-.56 3.13-.56m0 13q1.92 0 2.84-1.29.93-1.29.93-3.77 0-2.5-.93-3.8-.92-1.3-2.84-1.3-1.95 0-2.89 1.31t-.94 3.79q0 2.47.94 3.77.94 1.29 2.89 1.29"/></svg>